<svg width="133" height="56" viewBox="0 0 133 56" fill="none" xmlns="http://www.w3.org/2000/svg">
<path d="M28.1067 20.8641L40.1528 27.8188L48.1824 0L28.1067 20.8641Z" fill="#53AFCB"/>
<path d="M40.1528 27.8188L28.1067 34.7735L48.1824 55.6369L40.1528 27.8188Z" fill="#53AFCB"/>
<path opacity="0.5" d="M48.1831 55.6369L0 27.8188L28.1073 34.7735L48.1831 55.6369Z" fill="#53AFCB"/>
<path opacity="0.5" d="M28.1073 20.8641L0 27.8188L48.1831 0L28.1073 20.8641Z" fill="#53AFCB"/>
<path opacity="0.5" d="M48.1836 55.637L40.1539 27.8188L48.1836 0V55.637Z" fill="#53AFCB"/>
<path d="M0 27.8187L28.1073 34.7734V20.864L0 27.8187Z" fill="#53AFCB"/>
<path d="M56.9524 24.8946L59.4013 32.9321H61.2855L63.7344 24.8946V32.9321H65.5558V22.6963H62.7929L60.3434 30.6088L57.9574 22.6963H55.1316V32.9321H56.9524V24.8946ZM74.2214 18.8656C74.4098 19.0541 74.6611 19.179 74.9751 19.179H78.2405C78.4917 19.179 78.8058 19.0534 78.9942 18.8656L80.3131 17.5467L79.3082 16.3533L78.1777 17.4204C78.1149 17.4832 78.0521 17.4832 77.9264 17.4832H75.3513C75.2885 17.4832 75.2257 17.4832 75.1629 17.4204L74.5355 16.793C74.4726 16.7301 74.4726 16.6673 74.4726 16.6045V11.5805C74.4726 11.5177 74.4726 11.4549 74.5355 11.3921L75.1629 10.7647C75.2257 10.7019 75.2885 10.7019 75.3513 10.7019H77.7374C77.863 10.7019 77.9258 10.7019 77.9886 10.7647L79.1191 11.8318L80.3125 10.5763L78.9935 9.25728C78.8051 9.06885 78.4911 8.94324 78.2398 8.94324H74.9745C74.6604 8.94324 74.4092 9.06885 74.2208 9.25728L72.9646 10.5128C72.7134 10.764 72.5877 11.0153 72.5877 11.2665V16.8551C72.5877 17.1063 72.7134 17.3576 72.9646 17.6088L74.2214 18.8656ZM71.3957 38.0189L70.1402 36.7627C69.9518 36.5743 69.7005 36.4487 69.3865 36.4487H65.5558C65.3046 36.4487 65.0534 36.5743 64.8021 36.7627L63.546 38.0189C63.3575 38.2701 63.2326 38.5213 63.2326 38.7726V44.3612C63.2326 44.6124 63.3582 44.8636 63.546 45.1142L64.8021 46.3704C65.0534 46.5588 65.3046 46.6844 65.5558 46.6844H69.3865C69.7005 46.6844 69.9518 46.5588 70.1402 46.3704L71.3957 45.1142C71.6469 44.863 71.7725 44.6118 71.7725 44.3612V38.7732C71.7725 38.5213 71.6469 38.2701 71.3957 38.0189ZM69.8261 44.0478C69.8261 44.1106 69.8261 44.1728 69.7633 44.2356L69.1359 44.8637C69.0731 44.9271 69.0103 44.9271 68.9475 44.9271H66.0583C65.9327 44.9271 65.8699 44.9271 65.8071 44.8637L65.2418 44.2356C65.179 44.1728 65.1162 44.1106 65.1162 44.0478V39.0859C65.1162 39.0231 65.179 38.961 65.2418 38.8982L65.8071 38.2701C65.8699 38.2066 65.9327 38.2066 66.0583 38.2066H68.9475C69.0103 38.2066 69.0731 38.2066 69.1359 38.2701L69.7633 38.8982C69.8261 38.961 69.8261 39.0231 69.8261 39.0859V44.0478ZM85.9018 46.6851H87.7226V38.2066H92.0557V46.6851H93.8771V36.4487H85.9018V46.6851ZM103.359 38.0189L102.103 36.7627C101.852 36.5743 101.601 36.4487 101.35 36.4487H98.0218C97.7699 36.4487 97.5193 36.5743 97.2681 36.7627L96.0119 38.0189C95.8242 38.2701 95.6985 38.5213 95.6985 38.7726V46.6851H97.52V43.5447H101.852V46.6851H103.674V38.7732C103.674 38.5213 103.548 38.2701 103.359 38.0189ZM101.852 41.9123H97.52V39.0859C97.52 39.0231 97.5828 38.961 97.6449 38.8982L98.2096 38.2701C98.273 38.2066 98.3352 38.2066 98.4615 38.2066H100.91C101.036 38.2066 101.099 38.2066 101.162 38.2701L101.726 38.8982C101.79 38.961 101.852 39.0231 101.852 39.0859V41.9123H101.852ZM92.8722 26.9038H88.4763V22.6963H86.6555V32.9321H88.4763V28.6624H92.8722V32.9321H94.693V22.6963H92.8722V26.9038ZM117.363 44.3618V36.4487H115.543V46.6851H118.054L121.697 38.7726V46.6851H123.517V36.4487H121.005L117.363 44.3618ZM104.176 24.2665L102.92 23.011C102.732 22.8225 102.481 22.6969 102.166 22.6969H98.9018C98.5877 22.6969 98.3365 22.8225 98.1481 23.011L96.8919 24.2665C96.6413 24.5177 96.5157 24.7689 96.5157 25.0202V32.9321H98.3365V29.7923H102.67V32.9321H104.49V25.0202C104.49 24.7689 104.427 24.5171 104.176 24.2665ZM102.669 28.1593H98.3358V25.3336C98.3358 25.2708 98.3358 25.2079 98.3993 25.1451L99.0267 24.5171C99.0895 24.4542 99.1523 24.4542 99.2151 24.4542H101.79C101.853 24.4542 101.916 24.4542 101.979 24.5171L102.606 25.1451C102.67 25.2079 102.67 25.2708 102.67 25.3336V28.1593H102.669ZM62.541 10.2622L61.5361 9.25728C61.3477 9.06885 61.0965 8.94324 60.8452 8.94324H55.131V19.179H56.9518V15.7252H60.8459C61.0971 15.7252 61.3483 15.5996 61.5368 15.4112L62.5417 14.4062C62.7929 14.155 62.9185 13.9666 62.9185 13.6525V11.0153C62.9179 10.7019 62.7929 10.4506 62.541 10.2622ZM66.1833 15.2862C66.3717 15.6003 66.6857 15.6003 66.7485 15.6003H66.9998L65.1783 19.1797H67.1882L72.2122 8.94389H70.2023L67.8791 13.8423H67.6907C67.565 13.8423 67.5022 13.7167 67.4394 13.591L65.4302 8.94389H63.1691L66.1833 15.2862ZM84.2066 31.1734V22.6963H78.932C78.618 22.6963 78.3667 22.8219 78.1783 23.0103L76.9228 24.2658C76.6716 24.5171 76.6088 24.7683 76.6088 25.0195V31.1734H75.4154V32.9321H85.2743V31.1734H84.2066ZM78.4289 31.1734V25.3964C78.4289 25.3336 78.4289 25.2708 78.4917 25.2079L79.2454 24.4542C79.3082 24.3914 79.371 24.3914 79.4338 24.3914H82.3852V31.1734H78.4289ZM69.1353 24.8946L69.5121 24.5177C69.5749 24.4549 69.6377 24.4549 69.7005 24.4549H74.1586V22.6963H69.323C69.0718 22.6963 68.8206 22.8219 68.6321 23.0103L67.6272 24.0152C67.376 24.2037 67.2504 24.4549 67.2504 24.7689V30.86C67.2504 31.1734 67.376 31.4253 67.6272 31.6131L68.6321 32.618C68.8206 32.8064 69.0718 32.9314 69.323 32.9314H74.1586V31.1728H69.7005C69.6377 31.1728 69.5749 31.1728 69.5121 31.11L69.1353 30.7331C69.0724 30.6703 69.0724 30.6081 69.0724 30.5453V28.5996H74.1586V26.9038H69.0724V25.0823C69.0724 25.0202 69.0724 24.9567 69.1353 24.8946ZM111.711 40.6562H107.315V36.448H105.495V46.6844H107.315V42.4141H111.711V46.6844H113.532V36.4487H111.711V40.6562ZM56.9524 10.7019H60.4062C60.5318 10.7019 60.5946 10.7019 60.6574 10.7647L61.0343 11.1415C61.0971 11.2043 61.0971 11.2671 61.0971 11.3299V13.3392C61.0971 13.402 61.0971 13.4648 61.0343 13.5276L60.6574 13.9044C60.5946 13.9672 60.5318 13.9672 60.4062 13.9672H56.9524V10.7019ZM56.9524 42.5397H57.5177C57.6433 42.5397 57.7061 42.6026 57.7689 42.6654L60.7203 46.6851H63.1691L59.2757 41.5983L62.9807 36.4487H60.7203L57.8945 40.4684C57.7061 40.7196 57.6433 40.8446 57.5177 40.8446H56.9524V36.4487H55.1316V46.6851H56.9524V42.5397ZM127.411 36.4487C127.16 36.4487 126.908 36.5743 126.72 36.7627L125.652 37.767C125.464 37.9561 125.338 38.2066 125.338 38.5207V41.158C125.338 41.472 125.464 41.6604 125.652 41.9117L126.72 42.9159C126.908 43.1044 127.096 43.23 127.348 43.23H127.599L124.898 46.6838H127.034L129.546 43.3549C129.609 43.2921 129.671 43.23 129.798 43.23H131.179V46.6838H133V36.4487H127.411ZM131.179 41.6611H127.913C127.788 41.6611 127.726 41.6611 127.662 41.5983L127.222 41.1586C127.16 41.0958 127.16 41.0337 127.16 40.9708V38.8354C127.16 38.7726 127.16 38.7098 127.222 38.6463L127.599 38.2701C127.662 38.2066 127.725 38.2066 127.85 38.2066H131.179V41.6611ZM75.2891 38.6463L77.738 46.6851H79.6216L82.0711 38.6463V46.6851H83.8919V36.4487H81.129L78.6801 44.3618L76.2941 36.4487H73.4684V46.6851H75.2898V38.6463H75.2891ZM106.625 10.5134L105.369 9.25793C105.181 9.06951 104.929 8.94389 104.616 8.94389H101.351C101.037 8.94389 100.785 9.06951 100.598 9.25793L99.3414 10.5134C99.0895 10.7647 98.9646 11.0159 98.9646 11.2671V19.1797H100.785V16.0399H105.118V19.1797H106.939V11.2671C106.939 11.0159 106.876 10.7647 106.625 10.5134ZM105.118 14.4069H100.785V11.5812C100.785 11.5184 100.785 11.4556 100.848 11.3928L101.476 10.7653C101.539 10.7025 101.601 10.7025 101.664 10.7025H104.239C104.302 10.7025 104.364 10.7025 104.428 10.7653L105.056 11.3928C105.118 11.4556 105.118 11.5184 105.118 11.5812V14.4069H105.118ZM108.195 22.6963C107.944 22.6963 107.692 22.8219 107.504 23.0103L106.436 24.0152C106.248 24.2037 106.122 24.4549 106.122 24.7689V27.4062C106.122 27.7196 106.248 27.9087 106.436 28.1593L107.504 29.1649C107.692 29.3526 107.881 29.4783 108.132 29.4783H108.383L105.682 32.9314H107.818L110.33 29.6039C110.393 29.5404 110.455 29.4783 110.581 29.4783H111.963V32.9314H113.784V22.6963H108.195ZM111.963 27.9087H108.697C108.572 27.9087 108.509 27.9087 108.447 27.8459L108.007 27.4062C107.944 27.3434 107.944 27.2806 107.944 27.2178V25.0823C107.944 25.0195 107.944 24.9567 108.007 24.8939L108.383 24.5171C108.447 24.4542 108.509 24.4542 108.634 24.4542H111.963V27.9087ZM110.644 8.94389C110.392 8.94389 110.141 9.06951 109.953 9.25793L108.886 10.2629C108.697 10.4513 108.572 10.7025 108.572 11.0166V13.6539C108.572 13.9679 108.697 14.1563 108.886 14.4076L109.953 15.4125C110.141 15.6009 110.33 15.7265 110.581 15.7265H110.832L108.132 19.1803H110.267L112.779 15.8521C112.843 15.7893 112.905 15.7265 113.03 15.7265H114.411V19.1803H116.233V8.94389H110.644ZM114.411 14.1563H111.147C111.021 14.1563 110.958 14.1563 110.895 14.0935L110.455 13.6539C110.392 13.591 110.392 13.5282 110.392 13.4654V11.3306C110.392 11.2678 110.392 11.205 110.455 11.1422L110.832 10.7653C110.895 10.7025 110.958 10.7025 111.084 10.7025H114.411V14.1563ZM92.0557 15.035H92.6209C92.7466 15.035 92.8094 15.0978 92.8722 15.1606L95.8242 19.1797H98.273L94.3796 14.0935L98.0846 8.94389H95.8242L92.9984 12.963C92.81 13.2142 92.7472 13.3398 92.6216 13.3398H92.0563V8.94389H90.2355V19.1797H92.0563V15.035H92.0557ZM83.0133 18.8656C83.2017 19.0541 83.4529 19.179 83.7669 19.179H87.0323C87.2829 19.179 87.5976 19.0534 87.786 18.8656L89.105 17.5467L88.1001 16.3533L86.9695 17.4204C86.9067 17.4832 86.8439 17.4832 86.7183 17.4832H84.1438C84.081 17.4832 84.0182 17.4832 83.9554 17.4204L83.3273 16.793C83.2645 16.7301 83.2645 16.6673 83.2645 16.6045V11.5805C83.2645 11.5177 83.2645 11.4549 83.3273 11.3921L83.9554 10.7647C84.0182 10.7019 84.081 10.7019 84.1438 10.7019H86.5299C86.6555 10.7019 86.7183 10.7019 86.7811 10.7647L87.9116 11.8318L89.1043 10.5763L87.7854 9.25728C87.5969 9.06885 87.2822 8.94324 87.0317 8.94324H83.7663C83.4523 8.94324 83.201 9.06885 83.0126 9.25728L81.7571 10.5128C81.5058 10.764 81.3802 11.0153 81.3802 11.2665V16.8551C81.3802 17.1063 81.5058 17.3576 81.7571 17.6088L83.0133 18.8656Z" fill="#53AFCB"/>
</svg>
