<svg width="132" height="32" viewBox="0 0 132 32" fill="none" xmlns="http://www.w3.org/2000/svg">
<path d="M0.0185027 13.1907C0.0185027 11.3809 0.0357394 9.58828 0.00126603 7.77842C-0.0159707 7.20961 0.13916 6.91659 0.690734 6.69251C6.13753 4.52069 11.5843 2.31439 17.0139 0.108088C17.3931 -0.0470426 17.7206 -0.0298059 18.0826 0.125324C23.4604 2.31439 28.8555 4.50345 34.2506 6.6408C34.8539 6.88211 35.0435 7.19237 34.9745 7.77842C34.9401 8.12316 34.9745 8.46789 34.9745 8.81262C34.9745 10.3812 34.9745 10.4156 33.4405 10.2433C29.1141 9.76064 24.8049 9.29525 20.4785 8.76092C19.4098 8.62302 18.8065 8.95052 18.1688 9.82959C15.9969 12.846 13.6872 15.7763 11.4464 18.741C11.2224 19.034 10.9293 19.1546 10.5674 19.1719C7.36134 19.2925 4.15531 19.396 0.949285 19.5511C0.259817 19.5856 0.00126603 19.4304 0.0185027 18.672C0.0529761 16.8622 0.0185027 15.0178 0.0185027 13.1907Z" fill="#53AFCB"/>
<path d="M34.9746 18.1035C34.9746 19.8789 34.9574 21.6542 34.9919 23.4296C35.0091 23.9984 34.8367 24.2915 34.2852 24.5155C28.8901 26.6701 23.495 28.8592 18.1171 31.0482C17.6862 31.2206 17.3242 31.2034 16.8933 31.031C11.5155 28.8419 6.12039 26.6701 0.7253 24.5155C0.190962 24.3087 -0.0503519 24.0501 0.018595 23.4469C0.0875418 22.8263 0.0530684 22.1886 0.018595 21.5508C-0.0158784 20.9992 0.139252 20.8613 0.708063 20.9648C4.67251 21.6025 8.63695 22.2058 12.6014 22.8263C13.5666 22.9815 14.5319 23.0676 15.4799 23.2745C16.0143 23.3951 16.2383 23.2228 16.5314 22.8091C18.8756 19.379 21.2542 15.9834 23.5984 12.5533C23.9604 12.0189 24.3224 11.7948 24.9946 11.8121C28.0627 11.8983 31.1309 11.9327 34.199 11.9327C34.8712 11.9327 35.0091 12.1568 34.9919 12.7773C34.9402 14.5527 34.9746 16.3281 34.9746 18.1035Z" fill="#53AFCB"/>
<path d="M57.4858 15.6731C57.4858 16.6212 57.5202 17.5692 57.4685 18.5C57.4168 19.5514 57.0549 19.9479 56.0206 20.0685C54.3142 20.2753 52.5905 20.1202 50.8669 20.1547C50.5566 20.1547 50.436 20.034 50.3842 19.7065C50.1946 18.2069 50.2808 18.1208 51.7632 18.1208C52.7112 18.1208 53.6592 18.1035 54.6072 18.1208C55.0382 18.138 55.2105 17.9829 55.2278 17.5347C55.2278 17.0866 55.0726 16.9314 54.6245 16.9487C53.7109 16.9831 52.7974 16.9659 51.8666 16.9487C50.6083 16.9314 50.1429 16.4833 50.1085 15.2422C50.0912 14.4666 50.1257 13.6909 50.0912 12.9153C50.074 12.4154 50.2636 12.2948 50.729 12.2948C52.4182 12.2603 52.4182 12.243 52.4182 13.9322C52.4182 15.3974 52.4182 15.3974 53.8488 15.3974C55.4001 15.3801 55.1761 15.6042 55.1933 14.0184C55.1933 13.984 55.1933 13.9667 55.1933 13.9322C55.1933 12.2258 55.1933 12.243 56.917 12.312C57.3823 12.3292 57.503 12.5016 57.4858 12.9153C57.4858 13.8461 57.503 14.7596 57.4858 15.6731C57.503 15.6731 57.4858 15.6731 57.4858 15.6731Z" fill="#53AFCB"/>
<path d="M117.711 16.2241C117.711 15.1382 117.728 14.0523 117.694 12.9664C117.676 12.501 117.797 12.3114 118.314 12.3286C120.055 12.3631 121.813 12.3459 123.554 12.3286C124.019 12.3286 124.209 12.4148 124.209 12.9319C124.226 14.2592 124.261 14.2592 122.882 14.2592C122.141 14.2592 121.382 14.2764 120.641 14.2592C120.193 14.2419 120.055 14.4143 120.038 14.8624C120.038 15.3451 120.245 15.4485 120.658 15.4313C121.486 15.414 122.33 15.4657 123.158 15.414C123.864 15.3795 123.761 15.8277 123.778 16.2414C123.795 16.6895 123.778 17.017 123.175 16.9826C122.313 16.9308 121.451 16.9826 120.589 16.9653C120.176 16.9481 120.038 17.1032 120.055 17.5169C120.055 17.9306 120.141 18.1547 120.624 18.1547C121.572 18.1202 122.52 18.1719 123.468 18.1374C124.002 18.1202 124.278 18.2408 124.209 18.8441C124.175 19.1199 124.192 19.4129 124.209 19.706C124.226 20.0852 124.054 20.2058 123.692 20.2058C121.865 20.2058 120.021 20.1886 118.193 20.2058C117.728 20.2058 117.711 19.9645 117.711 19.6025C117.711 18.4649 117.711 17.3445 117.711 16.2241Z" fill="#53AFCB"/>
<path d="M62.6223 12.329C63.3635 12.329 64.1047 12.3462 64.8631 12.329C65.3112 12.3118 65.5008 12.4669 65.4491 12.915C65.4319 13.1736 65.4319 13.4321 65.4491 13.6907C65.5008 14.1561 65.2768 14.2767 64.8458 14.2767C63.7944 14.2595 62.7257 14.294 61.6571 14.2595C61.071 14.2423 60.8297 14.3802 60.8642 15.0179C60.9159 15.8108 60.9159 16.6209 60.8642 17.4138C60.8297 17.9654 61.0021 18.1722 61.5881 18.155C62.6395 18.1205 63.7082 18.1722 64.7597 18.1378C65.294 18.1205 65.5181 18.2757 65.4319 18.81C65.4319 18.8445 65.4319 18.8617 65.4319 18.8962C65.4147 20.4302 65.587 20.1889 64.1736 20.1889C62.8291 20.1889 61.4847 20.2923 60.1402 20.1027C59.0026 19.9476 58.5717 19.4995 58.5372 18.3618C58.5027 16.9657 58.5027 15.5523 58.5372 14.1561C58.5717 12.9495 59.1233 12.4152 60.3815 12.3635C61.1227 12.3118 61.8811 12.329 62.6223 12.329Z" fill="#53AFCB"/>
<path d="M70.4822 12.3291C71.2234 12.3291 71.9645 12.3464 72.723 12.3119C73.1884 12.2947 73.3435 12.467 73.2918 12.8979C73.2573 13.1565 73.2573 13.415 73.2918 13.6736C73.3435 14.139 73.1366 14.2596 72.7057 14.2596C71.5853 14.2424 70.465 14.2769 69.3618 14.2424C68.793 14.2252 68.6034 14.4148 68.6379 14.9836C68.6896 15.7592 68.6896 16.5349 68.6379 17.2933C68.6034 17.9138 68.7758 18.1724 69.448 18.1379C70.4994 18.0862 71.5681 18.1551 72.6195 18.1207C73.1366 18.1034 73.309 18.2586 73.309 18.7929C73.309 20.1718 73.3435 20.1891 71.9818 20.1718C70.6028 20.1546 69.2239 20.2753 67.8622 20.0684C66.828 19.9133 66.4316 19.5686 66.3971 18.5171C66.3454 17.0348 66.3281 15.5352 66.3799 14.0528C66.4143 12.8462 66.9314 12.3981 68.1725 12.3291C68.2242 12.3291 68.2931 12.3291 68.3448 12.3291C69.0515 12.3291 69.7755 12.3291 70.4822 12.3291Z" fill="#53AFCB"/>
<path d="M128.484 12.3292C129.432 12.3292 130.38 12.3636 131.311 12.3119C131.828 12.2947 132 12.4153 132 12.9669C131.983 14.2424 132.017 14.2424 130.742 14.2424C129.449 14.2424 129.604 14.1045 129.604 15.3801C129.604 16.7245 129.587 18.069 129.604 19.4134C129.621 19.9305 129.518 20.1719 128.915 20.1719C127.294 20.1719 127.294 20.1891 127.294 18.5344C127.294 17.3278 127.277 16.1385 127.312 14.9319C127.329 14.432 127.191 14.1735 126.639 14.2252C126.45 14.2424 126.243 14.2252 126.036 14.2252C124.778 14.208 124.967 14.3803 124.916 13.1565C124.881 12.5188 125.036 12.243 125.743 12.2947C126.657 12.3809 127.57 12.3292 128.484 12.3292Z" fill="#53AFCB"/>
<path d="M99.664 16.2934C99.664 15.2074 99.6812 14.1215 99.6467 13.0356C99.6295 12.5358 99.7674 12.3289 100.319 12.3289C102.008 12.3634 103.697 12.3806 105.387 12.3289C106.317 12.2944 106.007 12.9322 106.042 13.3631C106.076 13.863 106.128 14.3456 105.335 14.2767C104.473 14.2077 103.611 14.2939 102.767 14.2594C102.181 14.225 101.956 14.3973 101.974 15.0178C102.008 16.483 101.956 17.9308 101.991 19.396C102.008 19.9648 101.87 20.2061 101.25 20.1889C99.664 20.1716 99.664 20.2061 99.664 18.6031C99.664 17.8274 99.664 17.0518 99.664 16.2934Z" fill="#53AFCB"/>
<path d="M116.556 19.5859C116.297 17.8967 116.056 16.1903 115.849 14.5011C115.573 12.2431 115.573 12.2431 113.333 12.3293C112.902 12.3465 112.729 12.4844 112.643 12.8808C112.419 13.9151 112.126 14.932 111.868 15.949C111.764 15.8283 111.661 15.7077 111.557 15.5698C111.471 15.1561 111.385 14.7252 111.282 14.3115C110.764 12.2603 110.764 12.2776 108.644 12.312C108.144 12.312 107.955 12.4499 107.886 12.967C107.61 15.1561 107.3 17.3279 106.99 19.517C106.921 19.9996 107.007 20.2237 107.541 20.172C107.765 20.1547 108.007 20.1375 108.231 20.172C108.989 20.2926 109.299 19.9996 109.317 19.2067C109.351 18.2242 109.558 17.2417 109.696 16.2592C110.178 17.3452 110.471 18.4311 110.678 19.5515C110.782 20.1375 111.092 20.2409 111.575 20.172C112.074 20.103 112.747 20.465 112.902 19.5515C113.074 18.569 113.35 17.6037 113.591 16.6212C113.712 16.6902 113.833 16.7419 113.953 16.8108C114.039 17.4141 114.108 18.0002 114.195 18.6034C114.419 20.2754 114.419 20.2582 116.091 20.1892C116.556 20.172 116.625 20.0341 116.556 19.5859Z" fill="#53AFCB"/>
<path d="M82.0825 18.1893C81.5826 17.9825 81.5999 17.7239 81.5999 17.362C81.5999 15.8968 81.5999 14.449 81.5999 12.9838C81.5999 12.6219 81.6171 12.3116 81.0828 12.3288C79.5142 12.3461 77.9285 12.2944 76.3599 12.3633C75.1189 12.415 74.6535 12.9666 74.6363 14.2421C74.619 15.2936 74.6362 16.3622 74.619 17.4137C74.619 17.6378 74.7224 17.9997 74.4984 18.0342C73.4124 18.2066 73.964 19.0167 73.8434 19.5683C73.7399 20.0509 73.964 20.2233 74.4639 20.206C75.6705 20.1715 76.8598 20.1888 78.0664 20.1888C79.2729 20.1888 80.4623 20.1888 81.6688 20.1888C81.9446 20.1888 82.41 20.3094 82.3411 19.8096C82.2894 19.2408 82.7547 18.4651 82.0825 18.1893ZM79.3419 15.0695C79.2902 15.8451 79.3074 16.6208 79.3419 17.3964C79.3591 17.9308 79.2385 18.1549 78.6352 18.1549C76.877 18.1721 76.877 18.1893 76.877 16.2071C76.877 16.0865 76.877 15.983 76.877 15.8624C76.877 14.2421 76.877 14.2766 78.5145 14.2421C79.1523 14.2421 79.3763 14.4145 79.3419 15.0695Z" fill="#53AFCB"/>
<path d="M98.578 16.2588C98.578 15.1384 98.5608 14.018 98.578 12.9149C98.578 12.5357 98.5091 12.3288 98.0609 12.3288C96.3717 12.3461 94.6825 12.2944 92.9933 12.3633C91.7523 12.415 91.2524 12.9838 91.2179 14.2249C91.1835 16.0003 91.2179 17.7756 91.2007 19.551C91.2007 20.0509 91.3731 20.1716 91.8557 20.1888C93.4932 20.2405 93.4932 20.2577 93.4932 18.6547C93.4932 18.4479 93.4932 18.2583 93.4932 18.0514C93.4932 16.9655 93.4932 16.9655 94.6136 16.9655C96.3372 16.9655 96.3372 16.9655 96.3372 18.6547C96.3372 20.2577 96.3372 20.2405 97.9747 20.1888C98.4746 20.1716 98.6125 19.9992 98.6125 19.5338C98.5608 18.4479 98.578 17.3447 98.578 16.2588ZM95.4582 15.4659C95.2513 15.4659 95.0617 15.4659 94.8549 15.4659C94.5963 15.4659 94.3378 15.4487 94.0792 15.4659C93.5621 15.5176 93.4759 15.2591 93.4759 14.8109C93.4759 14.3455 93.6138 14.1215 94.1137 14.1559C94.5618 14.1904 95.0272 14.1732 95.4754 14.1559C95.958 14.1387 96.3545 14.1215 96.3545 14.8282C96.3545 15.6038 95.8891 15.4659 95.4582 15.4659Z" fill="#53AFCB"/>
<path d="M49.4536 13.9492C49.3501 12.8116 48.8848 12.3635 47.7471 12.3462C46.1096 12.3117 44.4894 12.3462 42.8519 12.329C42.3693 12.329 42.1969 12.4669 42.2141 12.9667C42.2486 14.0526 42.2314 15.1386 42.2314 16.2245C42.2314 17.2759 42.2659 18.3446 42.2141 19.396C42.1797 20.0683 42.421 20.2751 43.0415 20.1889C43.2139 20.1717 43.3862 20.1544 43.5586 20.1889C44.4032 20.344 44.61 19.9821 44.5756 19.1547C44.5239 17.0174 44.5583 16.9829 46.7474 17.0174C49.0054 17.0691 49.7121 16.9484 49.4536 13.9492ZM46.4544 15.4661C46.2475 15.4661 46.0579 15.4661 45.8511 15.4661C45.5925 15.4661 45.334 15.4488 45.0927 15.4661C44.5928 15.5178 44.5583 15.242 44.5411 14.8455C44.5239 14.4146 44.6618 14.225 45.1099 14.2423C45.5581 14.2767 46.0235 14.2595 46.4716 14.2423C46.9198 14.225 47.2128 14.2767 47.2128 14.8628C47.23 15.4833 46.8853 15.4833 46.4544 15.4661Z" fill="#53AFCB"/>
<path d="M90.3562 14.0527C90.3045 12.8461 89.7874 12.3635 88.5808 12.3462C86.9778 12.329 85.3748 12.3635 83.7718 12.329C83.2892 12.329 83.1168 12.4669 83.134 12.9667C83.1685 14.0182 83.1513 15.0869 83.1513 16.1383C83.1513 17.1897 83.203 18.2584 83.134 19.3098C83.0823 20.051 83.3753 20.2923 84.0648 20.1889C84.2027 20.1717 84.3578 20.1717 84.4957 20.1889C85.2541 20.3268 85.461 20.0166 85.4438 19.2581C85.392 17.0346 85.4438 16.9657 87.6328 17.0346C90.5458 17.1208 90.4424 16.2417 90.3562 14.0527ZM87.357 15.4661C87.1329 15.4661 86.8916 15.4661 86.5986 15.4661C86.2366 15.2765 85.4093 15.9142 85.4093 14.8283C85.4093 14.4491 85.5127 14.225 85.9436 14.2423C86.409 14.2595 86.8572 14.2595 87.3226 14.2423C87.7707 14.2423 88.1499 14.1733 88.1327 14.8628C88.1154 15.5178 87.7707 15.4833 87.357 15.4661Z" fill="#53AFCB"/>
</svg>
