<svg width="133" height="64" viewBox="0 0 133 64" fill="none" xmlns="http://www.w3.org/2000/svg">
<path d="M41.0792 41.8058H49.52V44.5638H45.5046V63.9423H41.0792V41.8058Z" fill="#53AFCB"/>
<path d="M54.5246 55.632L55.2831 44.5638H55.5371L56.2955 55.632H54.5246ZM49.6238 63.9423H53.9567L54.3668 58.0634H56.4534L56.8653 63.9423H61.1964L58.8884 41.8058H51.9318L49.6238 63.9423Z" fill="#53AFCB"/>
<path d="M67.5338 56.1945V60.3678C67.5338 60.9303 67.9693 61.0936 68.2233 61.0936C68.6407 61.0936 68.931 60.7488 68.931 60.3678V55.2147C68.931 54.5252 68.804 53.7631 67.1528 53.7631H65.3565V51.3318H67.2254C68.4774 51.3318 68.931 51.0414 68.931 49.6806V45.2896C68.931 44.9086 68.6407 44.5638 68.2233 44.5638C67.9693 44.5638 67.5338 44.709 67.5338 45.2896V48.9004H63.1066V45.7614C63.1066 44.2191 63.288 41.8058 66.3907 41.8058H70.0559C73.1587 41.8058 73.3583 44.2191 73.3583 45.7614V49.2996C73.3583 51.7128 71.6708 52.366 70.3463 52.3116V52.5293C73.322 52.4567 73.3583 54.743 73.3583 55.5232V59.9867C73.3583 61.5472 73.1587 63.9423 70.0559 63.9423H66.3907C63.288 63.9423 63.1066 61.5472 63.1066 59.9867V56.1945H67.5338Z" fill="#53AFCB"/>
<path d="M76.262 41.8058H86.5137V63.9423H82.0864V44.5638H80.6893V63.9423H76.262V41.8058Z" fill="#53AFCB"/>
<path d="M93.844 53.9809V44.5638H94.4247C94.8964 44.5638 95.2412 44.963 95.2412 45.6706V52.8741C95.2412 53.5817 94.8964 53.9809 94.4247 53.9809H93.844ZM89.4167 63.9423H93.844V56.4123H96.3843C99.4689 56.4123 99.6684 54.0172 99.6684 52.4567V45.7614C99.6684 44.2191 99.4689 41.8058 96.3843 41.8058H89.4167V63.9423Z" fill="#53AFCB"/>
<path d="M108.396 60.3678C108.396 60.7488 108.106 61.0936 107.688 61.0936C107.434 61.0936 106.999 60.9303 106.999 60.3678V45.2896C106.999 44.709 107.434 44.5638 107.688 44.5638C108.106 44.5638 108.396 44.9086 108.396 45.2896V60.3678ZM102.572 59.9867C102.572 61.5472 102.771 63.9423 105.856 63.9423H109.539C112.624 63.9423 112.823 61.5472 112.823 59.9867V45.7614C112.823 44.2191 112.624 41.8058 109.539 41.8058H105.856C102.771 41.8058 102.572 44.2191 102.572 45.7614V59.9867Z" fill="#53AFCB"/>
<path d="M127.23 41.8058H133V63.9423H128.573V50.0616H128.409L126.123 63.9423H122.585L120.317 50.0616H120.154V63.9423H115.726V41.8058H121.478L124.363 57.3739L127.23 41.8058Z" fill="#53AFCB"/>
<path d="M35.342 11.54C33.9866 5.60668 30.5899 0.780218 30.1218 0C29.3815 1.10682 26.6725 5.3708 25.2953 10.0884C23.7911 15.3685 23.5698 20.0498 24.0887 24.6404C24.604 29.2491 26.5509 33.9848 26.5509 33.9848C27.5852 36.4525 29.1347 39.1198 30.1436 40.4262C31.6223 38.5028 35.0208 32.7691 36.0805 25.2936C36.6702 21.1203 36.6956 17.4732 35.342 11.54ZM30.1218 38.9383C29.4559 37.6863 28.4216 35.3094 28.3237 31.6079C28.2982 28.0515 29.7262 24.9851 30.1436 24.35C30.5155 24.9851 31.7457 27.6524 31.8927 31.2994C31.9925 34.8558 30.8095 37.6682 30.1218 38.9383ZM34.9482 21.6102C34.8974 23.8783 34.6271 26.2734 34.2823 27.7068C34.4057 25.2391 34.11 21.7735 33.5439 19.0518C32.9777 16.3483 31.3756 11.8121 30.0964 9.7255C28.9152 11.7214 27.46 15.6406 26.6979 19.0337C25.9322 22.4267 25.9104 26.5455 25.9104 27.7794C25.7072 26.7451 25.1991 23.0255 25.3425 19.3058C25.4623 16.2394 26.1808 13.0641 26.5745 11.6125C28.0769 6.76794 29.777 3.66521 30.0964 3.1753C30.4157 3.66521 32.5568 7.49371 33.6672 11.5037C34.7722 15.5136 34.9954 19.3603 34.9482 21.6102Z" fill="#53AFCB"/>
<path d="M32.4208 41.8058H22.1164V48.7189C22.1255 48.7189 22.1328 48.7008 22.1419 48.7008C24.5696 46.2694 28.507 46.2694 30.9365 48.7008C33.3643 51.114 33.3643 55.0514 30.9365 57.4827C30.9257 57.5009 30.9148 57.5009 30.9039 57.519C30.8912 57.519 30.8785 57.5372 30.8676 57.5553C28.4453 59.9504 25.2809 61.1479 22.1164 61.1479C18.9375 61.1479 15.7586 59.9504 13.3345 57.519C9.0596 53.255 8.55337 46.6323 11.8121 41.8058C12.2512 41.1526 12.7575 40.5357 13.3345 39.9551C15.7586 37.5237 18.9375 36.3261 22.1164 36.3261V19.7057C9.90151 19.7057 0 29.5945 0 41.8058C0 54.0171 9.90151 63.9241 22.1164 63.9241C28.4852 63.9241 34.2225 61.2205 38.2579 56.9203V41.8058H32.4208Z" fill="#53AFCB"/>
</svg>
