<svg width="132" height="30" viewBox="0 0 132 30" fill="none" xmlns="http://www.w3.org/2000/svg">
<path d="M76.0504 9.19564H74.9954L74.1414 6.96717H69.8964L69.055 9.19564H68L71.5291 0H72.5464L76.0504 9.19564ZM70.3109 5.90417H73.7395L72.0189 1.42161L70.3109 5.90417Z" fill="#53AFCB"/>
<path d="M77.0798 7.53069C77.2724 7.72707 77.5152 7.90637 77.8082 8.0686C78.1097 8.23083 78.4739 8.31194 78.9009 8.31194C79.5623 8.31194 80.1149 8.15398 80.5587 7.83807C81.0024 7.52216 81.2662 7.05682 81.3499 6.44207H78.5995V5.41749H81.2997C81.1657 4.87958 80.8852 4.47402 80.4582 4.2008C80.0396 3.91903 79.5205 3.77815 78.9009 3.77815C78.5074 3.77815 78.1599 3.855 77.8585 4.00869C77.5571 4.16237 77.3143 4.33741 77.1301 4.53379L76.904 3.79096C76.971 3.66289 77.0673 3.53908 77.1929 3.41955C77.3268 3.29148 77.4859 3.18048 77.6701 3.08656C77.8627 2.9841 78.0762 2.90299 78.3106 2.84322C78.5534 2.78345 78.8172 2.75357 79.1018 2.75357C79.5288 2.75357 79.9349 2.83468 80.3201 2.99691C80.7052 3.1506 81.0443 3.37259 81.3374 3.66289C81.6304 3.95319 81.8648 4.29898 82.0407 4.70028C82.2165 5.10158 82.3044 5.54983 82.3044 6.04505C82.3044 6.54026 82.2165 6.99279 82.0407 7.40262C81.8648 7.80392 81.6304 8.14971 81.3374 8.44001C81.0443 8.72177 80.7052 8.94377 80.3201 9.10599C79.9349 9.25968 79.5288 9.33652 79.1018 9.33652C78.8004 9.33652 78.5241 9.30237 78.2729 9.23407C78.0301 9.1743 77.8124 9.09745 77.6199 9.00353C77.4357 8.90107 77.2766 8.79008 77.1426 8.67054C77.017 8.54247 76.9207 8.4144 76.8538 8.28633L77.0798 7.53069Z" fill="#53AFCB"/>
<path d="M84.0141 11.9236V2.89445H84.9184V3.65008C84.9686 3.53908 85.0523 3.42809 85.1695 3.31709C85.2951 3.20609 85.4458 3.11217 85.6217 3.03533C85.8059 2.94995 86.0068 2.88164 86.2245 2.83041C86.4506 2.77919 86.6892 2.75357 86.9404 2.75357C87.359 2.75357 87.7567 2.83468 88.1335 2.99691C88.5103 3.15913 88.841 3.3854 89.1257 3.6757C89.4187 3.966 89.6489 4.31179 89.8164 4.71309C89.9922 5.11438 90.0801 5.55837 90.0801 6.04505C90.0801 6.53172 89.9922 6.97571 89.8164 7.37701C89.6489 7.7783 89.4187 8.1241 89.1257 8.4144C88.841 8.7047 88.5103 8.93096 88.1335 9.09319C87.7567 9.25541 87.359 9.33652 86.9404 9.33652C86.438 9.33652 86.0026 9.24687 85.6342 9.06757C85.2742 8.87973 85.0439 8.67054 84.9435 8.44001V11.9236H84.0141ZM88.9749 6.99279C89.0922 6.71103 89.1508 6.39511 89.1508 6.04505C89.1508 5.69498 89.0922 5.38334 88.9749 5.11011C88.8661 4.82835 88.7112 4.58928 88.5103 4.39291C88.3177 4.19653 88.0832 4.04711 87.8069 3.94465C87.5306 3.83365 87.2292 3.77815 86.9027 3.77815C86.4254 3.77815 86.0026 3.88488 85.6342 4.09834C85.2742 4.30325 85.0439 4.59782 84.9435 4.98204V7.10805C85.0439 7.49227 85.2742 7.79111 85.6342 8.00456C86.0026 8.20948 86.4254 8.31194 86.9027 8.31194C87.2292 8.31194 87.5306 8.26071 87.8069 8.15825C88.0832 8.04725 88.3177 7.89357 88.5103 7.69719C88.7112 7.50081 88.8661 7.26601 88.9749 6.99279Z" fill="#53AFCB"/>
<path d="M91.6141 7.35139C91.4467 6.9501 91.3629 6.51465 91.3629 6.04505C91.3629 5.57545 91.4467 5.14 91.6141 4.7387C91.7816 4.33741 92.0076 3.99161 92.2923 3.70131C92.577 3.40247 92.9077 3.17194 93.2845 3.00972C93.6696 2.83895 94.0715 2.75357 94.4901 2.75357C94.9088 2.75357 95.3065 2.83895 95.6833 3.00972C96.0684 3.17194 96.4033 3.40247 96.688 3.70131C96.9727 3.99161 97.1987 4.33741 97.3662 4.7387C97.5336 5.14 97.6174 5.57545 97.6174 6.04505C97.6174 6.51465 97.5336 6.9501 97.3662 7.35139C97.1987 7.75269 96.9727 8.10275 96.688 8.40159C96.4033 8.69189 96.0684 8.92242 95.6833 9.09319C95.3065 9.25541 94.9088 9.33652 94.4901 9.33652C94.0715 9.33652 93.6696 9.25541 93.2845 9.09319C92.9077 8.92242 92.577 8.69189 92.2923 8.40159C92.0076 8.10275 91.7816 7.75269 91.6141 7.35139ZM94.4901 3.77815C94.172 3.77815 93.8789 3.83365 93.611 3.94465C93.3431 4.05565 93.1128 4.2136 92.9203 4.41852C92.7277 4.6149 92.5728 4.85397 92.4556 5.13573C92.3467 5.40895 92.2923 5.71206 92.2923 6.04505C92.2923 6.37804 92.3467 6.68541 92.4556 6.96717C92.5728 7.24039 92.7277 7.47946 92.9203 7.68438C93.1128 7.88076 93.3431 8.03445 93.611 8.14544C93.8789 8.25644 94.172 8.31194 94.4901 8.31194C94.7999 8.31194 95.0888 8.25644 95.3567 8.14544C95.633 8.03445 95.8675 7.88076 96.06 7.68438C96.2526 7.47946 96.4033 7.24039 96.5122 6.96717C96.6294 6.68541 96.688 6.37804 96.688 6.04505C96.688 5.71206 96.6294 5.40895 96.5122 5.13573C96.4033 4.85397 96.2526 4.6149 96.06 4.41852C95.8675 4.2136 95.633 4.05565 95.3567 3.94465C95.0888 3.83365 94.7999 3.77815 94.4901 3.77815Z" fill="#53AFCB"/>
<path d="M104.583 2.89445V9.19564H103.653V3.91903H100.25V9.19564H99.3205V2.89445H104.583Z" fill="#53AFCB"/>
<path d="M106.54 7.35139C106.373 6.9501 106.289 6.51465 106.289 6.04505C106.289 5.57545 106.373 5.14 106.54 4.7387C106.708 4.33741 106.934 3.99161 107.218 3.70131C107.503 3.40247 107.834 3.17194 108.211 3.00972C108.596 2.83895 108.998 2.75357 109.416 2.75357C109.835 2.75357 110.233 2.83895 110.609 3.00972C110.995 3.17194 111.329 3.40247 111.614 3.70131C111.899 3.99161 112.125 4.33741 112.292 4.7387C112.46 5.14 112.544 5.57545 112.544 6.04505C112.544 6.51465 112.46 6.9501 112.292 7.35139C112.125 7.75269 111.899 8.10275 111.614 8.40159C111.329 8.69189 110.995 8.92242 110.609 9.09319C110.233 9.25541 109.835 9.33652 109.416 9.33652C108.998 9.33652 108.596 9.25541 108.211 9.09319C107.834 8.92242 107.503 8.69189 107.218 8.40159C106.934 8.10275 106.708 7.75269 106.54 7.35139ZM109.416 3.77815C109.098 3.77815 108.805 3.83365 108.537 3.94465C108.269 4.05565 108.039 4.2136 107.846 4.41852C107.654 4.6149 107.499 4.85397 107.382 5.13573C107.273 5.40895 107.218 5.71206 107.218 6.04505C107.218 6.37804 107.273 6.68541 107.382 6.96717C107.499 7.24039 107.654 7.47946 107.846 7.68438C108.039 7.88076 108.269 8.03445 108.537 8.14544C108.805 8.25644 109.098 8.31194 109.416 8.31194C109.726 8.31194 110.015 8.25644 110.283 8.14544C110.559 8.03445 110.794 7.88076 110.986 7.68438C111.179 7.47946 111.329 7.24039 111.438 6.96717C111.556 6.68541 111.614 6.37804 111.614 6.04505C111.614 5.71206 111.556 5.40895 111.438 5.13573C111.329 4.85397 111.179 4.6149 110.986 4.41852C110.794 4.2136 110.559 4.05565 110.283 3.94465C110.015 3.83365 109.726 3.77815 109.416 3.77815Z" fill="#53AFCB"/>
<path d="M114.247 11.9236V2.89445H115.151V3.65008C115.201 3.53908 115.285 3.42809 115.402 3.31709C115.528 3.20609 115.678 3.11217 115.854 3.03533C116.038 2.94995 116.239 2.88164 116.457 2.83041C116.683 2.77919 116.922 2.75357 117.173 2.75357C117.592 2.75357 117.989 2.83468 118.366 2.99691C118.743 3.15913 119.074 3.3854 119.358 3.6757C119.651 3.966 119.882 4.31179 120.049 4.71309C120.225 5.11438 120.313 5.55837 120.313 6.04505C120.313 6.53172 120.225 6.97571 120.049 7.37701C119.882 7.7783 119.651 8.1241 119.358 8.4144C119.074 8.7047 118.743 8.93096 118.366 9.09319C117.989 9.25541 117.592 9.33652 117.173 9.33652C116.671 9.33652 116.235 9.24687 115.867 9.06757C115.507 8.87973 115.277 8.67054 115.176 8.44001V11.9236H114.247ZM119.207 6.99279C119.325 6.71103 119.383 6.39511 119.383 6.04505C119.383 5.69498 119.325 5.38334 119.207 5.11011C119.099 4.82835 118.944 4.58928 118.743 4.39291C118.55 4.19653 118.316 4.04711 118.04 3.94465C117.763 3.83365 117.462 3.77815 117.135 3.77815C116.658 3.77815 116.235 3.88488 115.867 4.09834C115.507 4.30325 115.277 4.59782 115.176 4.98204V7.10805C115.277 7.49227 115.507 7.79111 115.867 8.00456C116.235 8.20948 116.658 8.31194 117.135 8.31194C117.462 8.31194 117.763 8.26071 118.04 8.15825C118.316 8.04725 118.55 7.89357 118.743 7.69719C118.944 7.50081 119.099 7.26601 119.207 6.99279Z" fill="#53AFCB"/>
<path d="M126.373 3.91903H124.251V9.19564H123.321V3.91903H121.199V2.89445H126.373V3.91903Z" fill="#53AFCB"/>
<path d="M69.3689 26.272H68.1005L71.1147 21.4949L68.3014 17.0764H69.5071L71.73 20.5728L73.953 17.0764H75.2089L72.3831 21.4821L75.3847 26.272H74.2042L71.7677 22.4683L69.3689 26.272Z" fill="#53AFCB"/>
<path d="M78.8639 19.83C79.2407 19.83 79.5881 19.8855 79.9063 19.9965C80.2328 20.0989 80.5091 20.2526 80.7352 20.4575C80.9696 20.6624 81.1538 20.9186 81.2878 21.226C81.4218 21.5333 81.4887 21.8834 81.4887 22.2762V26.272H80.5845V25.6701C80.4254 25.8921 80.1784 26.0714 79.8435 26.208C79.5086 26.3446 79.1444 26.4129 78.7509 26.4129C77.9806 26.4129 77.3777 26.2294 76.9424 25.8622C76.507 25.4951 76.2893 24.9913 76.2893 24.3509C76.2893 24.0436 76.3521 23.7661 76.4777 23.5185C76.6033 23.2709 76.7749 23.0617 76.9926 22.8909C77.2187 22.7116 77.4824 22.5793 77.7838 22.4939C78.0852 22.4 78.4118 22.353 78.7634 22.353C78.8806 22.353 79.0146 22.3615 79.1653 22.3786C79.3244 22.3957 79.4877 22.4299 79.6551 22.4811C79.8226 22.5238 79.9858 22.5835 80.1449 22.6604C80.304 22.7287 80.4422 22.8183 80.5594 22.9293V22.5323C80.5594 21.9517 80.3877 21.5291 80.0445 21.2644C79.7095 20.9912 79.2909 20.8546 78.7885 20.8546C78.395 20.8546 78.0308 20.9357 77.6959 21.0979C77.361 21.2601 77.1014 21.465 76.9172 21.7126L76.6661 20.8674C76.7498 20.7222 76.867 20.5899 77.0177 20.4703C77.1684 20.3423 77.3401 20.2313 77.5326 20.1373C77.7252 20.0434 77.9345 19.9709 78.1606 19.9196C78.3867 19.8599 78.6211 19.83 78.8639 19.83ZM80.5594 24.0308C80.4422 23.8088 80.2203 23.6465 79.8937 23.5441C79.5756 23.4331 79.2239 23.3776 78.8388 23.3776C78.3364 23.3776 77.9387 23.4672 77.6457 23.6465C77.361 23.8173 77.2187 24.0521 77.2187 24.3509C77.2187 24.6412 77.3526 24.8889 77.6206 25.0938C77.8969 25.2901 78.3029 25.3883 78.8388 25.3883C79.2323 25.3883 79.5881 25.3158 79.9063 25.1706C80.2245 25.0255 80.4422 24.8376 80.5594 24.6071V24.0308Z" fill="#53AFCB"/>
<path d="M88.9984 17.7808C88.7807 17.9516 88.5546 18.0882 88.3202 18.1906C88.0858 18.2846 87.843 18.3657 87.5918 18.434C87.3406 18.4937 87.081 18.5535 86.8131 18.6133C86.5536 18.6645 86.294 18.7328 86.0344 18.8182C85.6995 18.9292 85.4191 19.0786 85.193 19.2665C84.9669 19.4458 84.7827 19.6464 84.6404 19.8684C84.5064 20.0904 84.4101 20.3295 84.3515 20.5856C84.2929 20.8332 84.2636 21.0765 84.2636 21.3156C84.4143 21.0851 84.5902 20.893 84.7911 20.7393C84.992 20.5856 85.2014 20.4661 85.4191 20.3807C85.6367 20.2953 85.8544 20.2355 86.0721 20.2014C86.2898 20.1672 86.4908 20.1502 86.675 20.1502C87.0852 20.1502 87.4662 20.227 87.8178 20.3807C88.1779 20.5258 88.4877 20.7308 88.7472 20.9954C89.0151 21.2601 89.2203 21.5803 89.3626 21.956C89.5133 22.3231 89.5887 22.7287 89.5887 23.1727C89.5887 23.6252 89.5091 24.0478 89.35 24.4406C89.1993 24.8334 88.9858 25.1792 88.7095 25.478C88.4332 25.7683 88.1067 25.9988 87.7299 26.1696C87.3615 26.3318 86.9638 26.4129 86.5368 26.4129C86.0596 26.4129 85.62 26.3275 85.2181 26.1568C84.8246 25.9775 84.4813 25.7128 84.1883 25.3627C83.9036 25.0041 83.6775 24.5559 83.5101 24.018C83.351 23.4801 83.2715 22.8482 83.2715 22.1225C83.2715 21.0552 83.4305 20.1758 83.7487 19.4842C84.0752 18.784 84.5776 18.2846 85.2558 17.9857C85.507 17.8747 85.7791 17.7808 86.0721 17.704C86.3652 17.6271 86.6582 17.5545 86.9513 17.4862C87.2527 17.4094 87.5499 17.3283 87.843 17.2429C88.136 17.149 88.4081 17.0294 88.6593 16.8843L88.9984 17.7808ZM86.4991 25.3883C87.1355 25.3883 87.6504 25.2005 88.0439 24.8248C88.4458 24.4491 88.6467 23.9368 88.6467 23.2879C88.6467 22.9806 88.5965 22.6988 88.496 22.4427C88.3956 22.178 88.249 21.956 88.0565 21.7767C87.8723 21.5888 87.6462 21.4437 87.3783 21.3412C87.1187 21.2302 86.8299 21.1747 86.5117 21.1747C86.2856 21.1747 86.0554 21.2132 85.8209 21.29C85.5865 21.3583 85.3646 21.465 85.1553 21.6102C84.9544 21.7468 84.7744 21.9176 84.6153 22.1225C84.4562 22.3274 84.339 22.5622 84.2636 22.8269C84.272 23.2196 84.3348 23.574 84.452 23.8899C84.5692 24.2058 84.7283 24.4748 84.9292 24.6967C85.1302 24.9187 85.3646 25.0895 85.6326 25.209C85.9005 25.3286 86.1893 25.3883 86.4991 25.3883Z" fill="#53AFCB"/>
<path d="M93.4344 19.83C93.8112 19.83 94.1586 19.8855 94.4768 19.9965C94.8033 20.0989 95.0796 20.2526 95.3057 20.4575C95.5401 20.6624 95.7243 20.9186 95.8583 21.226C95.9923 21.5333 96.0592 21.8834 96.0592 22.2762V26.272H95.155V25.6701C94.9959 25.8921 94.7489 26.0714 94.414 26.208C94.0791 26.3446 93.7149 26.4129 93.3214 26.4129C92.5511 26.4129 91.9482 26.2294 91.5129 25.8622C91.0775 25.4951 90.8598 24.9913 90.8598 24.3509C90.8598 24.0436 90.9226 23.7661 91.0482 23.5185C91.1738 23.2709 91.3454 23.0617 91.5631 22.8909C91.7892 22.7116 92.0529 22.5793 92.3543 22.4939C92.6557 22.4 92.9823 22.353 93.3339 22.353C93.4511 22.353 93.5851 22.3615 93.7358 22.3786C93.8949 22.3957 94.0582 22.4299 94.2256 22.4811C94.3931 22.5238 94.5563 22.5835 94.7154 22.6604C94.8745 22.7287 95.0127 22.8183 95.1299 22.9293V22.5323C95.1299 21.9517 94.9582 21.5291 94.615 21.2644C94.28 20.9912 93.8614 20.8546 93.359 20.8546C92.9655 20.8546 92.6013 20.9357 92.2664 21.0979C91.9315 21.2601 91.6719 21.465 91.4877 21.7126L91.2366 20.8674C91.3203 20.7222 91.4375 20.5899 91.5882 20.4703C91.7389 20.3423 91.9106 20.2313 92.1031 20.1373C92.2957 20.0434 92.505 19.9709 92.7311 19.9196C92.9572 19.8599 93.1916 19.83 93.4344 19.83ZM95.1299 24.0308C95.0127 23.8088 94.7908 23.6465 94.4642 23.5441C94.1461 23.4331 93.7944 23.3776 93.4093 23.3776C92.9069 23.3776 92.5092 23.4672 92.2162 23.6465C91.9315 23.8173 91.7892 24.0521 91.7892 24.3509C91.7892 24.6412 91.9231 24.8889 92.191 25.0938C92.4673 25.2901 92.8734 25.3883 93.4093 25.3883C93.8028 25.3883 94.1586 25.3158 94.4768 25.1706C94.795 25.0255 95.0127 24.8376 95.1299 24.6071V24.0308Z" fill="#53AFCB"/>
<path d="M98.1308 29V19.9709H99.0351V20.7265C99.0853 20.6155 99.169 20.5045 99.2862 20.3935C99.4118 20.2825 99.5625 20.1886 99.7384 20.1117C99.9226 20.0264 100.124 19.958 100.341 19.9068C100.567 19.8556 100.806 19.83 101.057 19.83C101.476 19.83 101.873 19.9111 102.25 20.0733C102.627 20.2355 102.958 20.4618 103.242 20.7521C103.535 21.0424 103.766 21.3882 103.933 21.7895C104.109 22.1908 104.197 22.6348 104.197 23.1214C104.197 23.6081 104.109 24.0521 103.933 24.4534C103.766 24.8547 103.535 25.2005 103.242 25.4908C102.958 25.7811 102.627 26.0074 102.25 26.1696C101.873 26.3318 101.476 26.4129 101.057 26.4129C100.555 26.4129 100.119 26.3233 99.7509 26.144C99.3909 25.9561 99.1606 25.7469 99.0602 25.5164V29H98.1308ZM103.092 24.0692C103.209 23.7874 103.267 23.4715 103.267 23.1214C103.267 22.7714 103.209 22.4597 103.092 22.1865C102.983 21.9048 102.828 21.6657 102.627 21.4693C102.434 21.2729 102.2 21.1235 101.924 21.0211C101.647 20.9101 101.346 20.8546 101.019 20.8546C100.542 20.8546 100.119 20.9613 99.7509 21.1747C99.3909 21.3797 99.1606 21.6742 99.0602 22.0584V24.1845C99.1606 24.5687 99.3909 24.8675 99.7509 25.081C100.119 25.2859 100.542 25.3883 101.019 25.3883C101.346 25.3883 101.647 25.3371 101.924 25.2347C102.2 25.1237 102.434 24.97 102.627 24.7736C102.828 24.5772 102.983 24.3424 103.092 24.0692Z" fill="#53AFCB"/>
<path d="M105.731 24.4278C105.563 24.0265 105.48 23.591 105.48 23.1214C105.48 22.6518 105.563 22.2164 105.731 21.8151C105.898 21.4138 106.124 21.068 106.409 20.7777C106.694 20.4789 107.024 20.2483 107.401 20.0861C107.786 19.9154 108.188 19.83 108.607 19.83C109.025 19.83 109.423 19.9154 109.8 20.0861C110.185 20.2483 110.52 20.4789 110.805 20.7777C111.089 21.068 111.315 21.4138 111.483 21.8151C111.65 22.2164 111.734 22.6518 111.734 23.1214C111.734 23.591 111.65 24.0265 111.483 24.4278C111.315 24.8291 111.089 25.1792 110.805 25.478C110.52 25.7683 110.185 25.9988 109.8 26.1696C109.423 26.3318 109.025 26.4129 108.607 26.4129C108.188 26.4129 107.786 26.3318 107.401 26.1696C107.024 25.9988 106.694 25.7683 106.409 25.478C106.124 25.1792 105.898 24.8291 105.731 24.4278ZM108.607 20.8546C108.289 20.8546 107.996 20.9101 107.728 21.0211C107.46 21.132 107.23 21.29 107.037 21.4949C106.844 21.6913 106.689 21.9304 106.572 22.2121C106.463 22.4854 106.409 22.7885 106.409 23.1214C106.409 23.4544 106.463 23.7618 106.572 24.0436C106.689 24.3168 106.844 24.5559 107.037 24.7608C107.23 24.9572 107.46 25.1108 107.728 25.2218C107.996 25.3328 108.289 25.3883 108.607 25.3883C108.917 25.3883 109.205 25.3328 109.473 25.2218C109.75 25.1108 109.984 24.9572 110.177 24.7608C110.369 24.5559 110.52 24.3168 110.629 24.0436C110.746 23.7618 110.805 23.4544 110.805 23.1214C110.805 22.7885 110.746 22.4854 110.629 22.2121C110.52 21.9304 110.369 21.6913 110.177 21.4949C109.984 21.29 109.75 21.132 109.473 21.0211C109.205 20.9101 108.917 20.8546 108.607 20.8546Z" fill="#53AFCB"/>
<path d="M115.685 19.9709C115.987 19.9709 116.263 20.0135 116.514 20.0989C116.765 20.1758 116.983 20.291 117.167 20.4447C117.351 20.5899 117.494 20.7692 117.594 20.9826C117.695 21.1875 117.745 21.4223 117.745 21.687C117.745 22.2591 117.565 22.6903 117.205 22.9806C117.473 23.1257 117.678 23.3178 117.82 23.5569C117.971 23.796 118.046 24.0948 118.046 24.4534C118.046 24.7266 117.992 24.9742 117.883 25.1962C117.774 25.4182 117.624 25.6103 117.431 25.7726C117.238 25.9262 117.012 26.0501 116.753 26.144C116.493 26.2294 116.213 26.272 115.911 26.272H113.437V19.9709H115.685ZM114.367 23.5953V25.2475H116.2C116.451 25.2475 116.665 25.1749 116.841 25.0297C117.025 24.876 117.117 24.6754 117.117 24.4278C117.117 24.1716 117.025 23.971 116.841 23.8258C116.665 23.6722 116.451 23.5953 116.2 23.5953H114.367ZM114.367 20.9954V22.5707H115.936C116.179 22.5707 116.384 22.5024 116.552 22.3658C116.728 22.2207 116.816 22.0286 116.816 21.7895C116.816 21.5419 116.728 21.3498 116.552 21.2132C116.384 21.068 116.179 20.9954 115.936 20.9954H114.367Z" fill="#53AFCB"/>
<path d="M124.789 25.3627C124.722 25.4908 124.622 25.6189 124.488 25.7469C124.362 25.8665 124.203 25.9775 124.011 26.0799C123.827 26.1739 123.609 26.2507 123.358 26.3105C123.115 26.3788 122.843 26.4129 122.541 26.4129C122.114 26.4129 121.708 26.3361 121.323 26.1824C120.938 26.0202 120.599 25.7982 120.306 25.5164C120.013 25.2261 119.778 24.8803 119.603 24.479C119.427 24.0692 119.339 23.6167 119.339 23.1214C119.339 22.6262 119.427 22.178 119.603 21.7767C119.778 21.3754 120.013 21.0296 120.306 20.7393C120.599 20.449 120.938 20.227 121.323 20.0733C121.708 19.9111 122.114 19.83 122.541 19.83C122.826 19.83 123.086 19.8599 123.32 19.9196C123.563 19.9794 123.776 20.0605 123.961 20.163C124.153 20.2569 124.312 20.3679 124.438 20.496C124.572 20.6155 124.672 20.7393 124.739 20.8674L124.513 21.6358C124.329 21.4394 124.082 21.2601 123.772 21.0979C123.462 20.9357 123.111 20.8546 122.717 20.8546C122.357 20.8546 122.026 20.9101 121.725 21.0211C121.424 21.1235 121.164 21.2772 120.946 21.4821C120.737 21.6785 120.57 21.9176 120.444 22.1993C120.327 22.4725 120.268 22.7799 120.268 23.1214C120.268 23.463 120.327 23.7746 120.444 24.0564C120.57 24.3296 120.741 24.5687 120.959 24.7736C121.177 24.97 121.436 25.1237 121.738 25.2347C122.039 25.3371 122.374 25.3883 122.742 25.3883C123.169 25.3883 123.529 25.3072 123.822 25.145C124.124 24.9828 124.371 24.7992 124.563 24.5943L124.789 25.3627Z" fill="#53AFCB"/>
<path d="M126.499 19.9709H127.428V22.7372L130.367 19.9709H131.711L128.446 23.0318L132 26.272H130.493L127.428 23.4288V26.272H126.499V19.9709Z" fill="#53AFCB"/>
<path d="M24.2137 5.1488C25.0416 4.83675 25.0416 4.83675 25.5525 5.59954C25.9048 6.11962 26.2483 6.6397 26.6359 7.12511C26.8649 7.41115 26.8121 7.58451 26.5919 7.81855C26.1779 8.24328 25.7903 8.69402 25.4204 9.1881C26.125 8.67668 26.8209 8.16527 27.5608 7.62785C27.4022 7.28113 27.2525 6.95175 27.0763 6.54435C27.2965 6.52702 27.4463 6.50101 27.596 6.50101C28.2566 6.50101 28.926 6.449 29.5778 6.50968C30.6877 6.6137 31.6918 6.27564 32.6959 5.92025C34.1316 5.40884 35.5586 4.87142 37.0119 4.42936C38.1129 4.0913 38.9409 3.34585 39.8834 2.78243C40.6233 2.34036 41.3103 1.82028 42.0502 1.36955C42.2176 1.26553 42.517 1.21352 42.6932 1.29153C43.389 1.60358 43.8735 1.39555 44.2787 0.806125C44.4813 0.511413 44.7631 0.277377 45.0186 0C45.4766 0.26004 45.3356 0.572089 45.1331 0.866802C45.6351 1.7076 46.1636 1.15285 46.8154 0.814793C46.7273 1.13551 46.7273 1.39555 46.604 1.49957C46.0139 1.99364 46.4455 2.48772 46.4983 3.01647C46.7273 2.92979 46.9123 2.85178 47.1237 2.77376C47.2558 3.10315 47.2118 3.31985 46.9123 3.51921C46.7185 3.64923 46.5952 3.89194 46.4807 4.10864C46.331 4.37735 46.4279 4.56804 46.833 4.62872C46.4367 4.9061 46.1196 5.13146 45.7937 5.3655C45.5206 5.5562 45.2211 5.72956 44.9833 5.95493C43.9528 6.92574 42.6492 7.14244 41.2398 7.30714C41.46 7.34181 41.601 7.35914 41.7419 7.38515C41.7683 7.39382 41.7859 7.41982 41.874 7.47183C41.5746 7.98324 41.2927 8.51199 40.958 9.00607C40.7906 9.25744 40.5352 9.48281 40.2709 9.6215C39.3725 10.0809 38.4477 10.4883 37.5492 10.9477C37.329 11.0604 37.1176 11.2511 36.9855 11.4504C36.5451 12.1005 36.1487 12.7767 35.7083 13.4268C35.4881 13.7475 35.2151 14.0248 34.942 14.3542C35.0213 14.3369 35.0829 14.3456 35.1182 14.3196C35.6907 13.9295 36.1135 14.1115 36.5979 14.5363C37.8839 15.6544 39.2228 16.7119 40.544 17.7868C40.7202 17.9255 40.9404 18.0295 41.1606 18.0988C42.0766 18.3935 43.0015 18.6969 43.9351 18.9396C44.4108 19.061 44.4108 19.4337 44.5077 19.7631C44.5253 19.8151 44.3932 19.9451 44.3051 19.9971C44.0849 20.1271 43.8471 20.2398 43.5828 20.3698C44.0232 21.3233 44.4372 22.2595 44.904 23.1783C44.9745 23.3256 45.2652 23.395 45.4678 23.447C46.2165 23.6377 46.9828 23.785 47.7315 23.9844C47.9429 24.0364 48.1719 24.1664 48.3128 24.3311C48.9558 25.0419 49.5724 25.7787 50.1801 26.5155C50.3211 26.6888 50.3915 26.9229 50.4796 27.1309C50.6558 27.573 50.8231 28.015 50.9817 28.4658C51.0169 28.5698 50.9905 28.6911 50.9905 28.8038C50.876 28.8038 50.7527 28.8125 50.6382 28.7865C50.5237 28.7691 50.418 28.7085 50.3034 28.6738C50.3034 28.9252 50.3034 29.1159 50.3034 29.3066C50.048 29.2199 49.7926 29.1245 49.5283 29.0292C49.5459 29.0899 49.59 29.1765 49.5988 29.2632C49.6164 29.3846 49.6164 29.5146 49.6252 29.6446C49.4667 29.6359 49.2905 29.6619 49.1584 29.6013C48.9998 29.5319 48.8765 29.3846 48.6563 29.3326C48.718 29.4713 48.7708 29.6013 48.8853 29.8613C48.6299 29.8266 48.3657 29.87 48.2952 29.7746C48.0398 29.4366 47.6698 29.3846 47.3263 29.3412C46.4543 29.2459 45.6792 28.9338 44.9833 28.4398C44.3844 28.015 43.6973 27.9023 43.0103 27.755C41.1694 27.3476 39.3197 26.9402 37.4788 26.5241C37.3026 26.4808 37.1264 26.3768 37.0031 26.2554C36.3865 25.5966 35.7788 24.9292 35.1886 24.2531C35.0917 24.1404 35.0301 23.9411 35.0389 23.7937C35.1094 23.0916 35.2062 22.3895 35.2591 21.6787C35.0301 22.5542 34.8011 23.421 34.5897 24.3051C34.5633 24.4005 34.6866 24.5652 34.7835 24.6518C35.4793 25.3106 36.184 25.9694 36.8974 26.6108C37.0119 26.7148 37.1705 26.7842 37.3202 26.8102C39.3989 27.2609 41.4689 27.7116 43.5564 28.1364C44.446 28.3184 45.6175 29.1852 45.8025 29.87C45.3445 30.078 45.2211 29.5319 44.8248 29.4539C44.9393 29.6359 45.0186 29.766 45.1595 30C44.9217 29.9653 44.7631 29.9827 44.6398 29.922C43.3362 29.3412 42.0502 28.6911 40.7202 28.171C39.9979 27.8937 39.1964 27.807 38.4212 27.6856C37.3643 27.5123 36.3073 27.3823 35.2415 27.2262C35.1534 27.2176 35.0565 27.2002 34.9949 27.1482C34.2197 26.5155 33.4534 25.874 32.6078 25.1719C33.0218 25.0419 33.3477 24.9379 33.6648 24.8425C31.3307 25.0332 29.0846 24.4265 26.8033 24.1751C26.354 24.1231 25.9312 23.8544 25.4996 23.6723C23.3681 22.7362 21.2453 21.7914 19.1137 20.8552C18.7966 20.7166 18.6029 20.5259 18.4883 20.1965C18.2065 19.373 17.9246 18.5496 17.5723 17.7608C17.3081 17.1627 17.2992 16.5646 17.3785 15.9405C17.4049 15.7151 17.4138 15.4811 17.3873 15.247C17.2464 15.6978 17.0878 16.1398 16.9733 16.5906C16.8941 16.9026 16.7531 16.9633 16.436 16.8766C14.5247 16.3132 12.6221 15.7151 10.6931 15.2297C9.72422 14.987 8.98433 14.5449 8.46465 13.7215C8.13875 13.2014 7.66311 12.8633 7.07296 12.6553C6.63255 12.4993 6.20976 12.2912 5.80458 12.0659C5.08231 11.6498 4.28958 11.5631 3.47923 11.5458C3.03882 11.5371 2.67768 11.4244 2.31655 11.1297C1.7264 10.6443 1.0746 10.2283 0.449217 9.78619C0.405176 9.76019 0.387559 9.69951 0.317094 9.59549C0.475641 9.56949 0.590147 9.55215 0.704654 9.53482C0.827968 9.00607 0.149739 9.10142 0.0264245 8.71136C0.167355 8.68535 0.281861 8.66801 0.449217 8.64201C0.299478 8.36463 0.158547 8.11326 0 7.82722C0.0792735 7.80121 0.140931 7.77521 0.184972 7.80121C1.79687 8.52066 3.56731 8.45998 5.24967 8.8067C5.83982 8.92806 6.44758 8.95406 7.02892 9.07541C8.65843 9.41346 10.3056 9.23144 11.9439 9.2401C12.305 9.2401 12.5164 9.32678 12.6309 9.68217C12.719 9.94221 12.9128 10.1676 12.9832 10.4276C13.2563 11.4418 13.9433 12.0312 14.9298 12.3346C15.0091 12.3606 15.0972 12.3953 15.1677 12.4473C16.348 13.2447 17.6692 13.0974 18.9904 12.9587C18.6909 12.924 18.3826 12.8807 18.0832 12.8547C17.7661 12.82 17.4402 12.8113 17.1231 12.7507C16.8676 12.7073 16.6034 12.6466 16.3744 12.5339C15.6257 12.1612 14.8858 11.7798 14.1635 11.3724C13.9786 11.2684 13.8112 11.0691 13.7231 10.8784C13.0977 9.51748 13.1682 8.03525 13.0185 6.58769C12.992 6.30165 12.8952 6.11095 12.675 5.93759C11.9086 5.34817 11.1688 4.7414 10.4024 4.15198C10.1911 3.98729 10.0501 3.83126 10.1558 3.53655C10.2791 3.18983 10.0765 2.68708 10.6579 2.56573C11.0454 2.48772 11.4242 2.23635 11.8382 2.48772C11.8646 2.50506 11.9175 2.47905 11.9791 2.47905C11.5916 2.09766 11.1864 2.01965 10.6931 2.23635C10.5346 2.30569 10.3056 2.22768 10.103 2.21901C10.1558 2.04565 10.1646 1.84629 10.2615 1.7076C10.561 1.26553 10.9045 0.849465 11.2128 0.407397C11.3713 0.17336 11.5299 0.138688 11.8029 0.234036C12.8864 0.632765 13.9786 1.01416 15.0796 1.37821C15.3086 1.45623 15.5817 1.42155 15.8371 1.43889C15.8547 1.43889 15.8635 1.43022 15.8811 1.43022C16.7972 1.13551 17.6956 1.09217 18.594 1.54291C20.2676 2.36637 22.0821 2.47038 23.9142 2.41838C24.2841 2.40971 24.5396 2.49639 24.6717 2.86045C24.7157 2.9818 24.8126 3.07715 24.8831 3.18983C25.2442 3.76192 25.2178 4.0653 24.7245 4.55071C24.5307 4.7414 24.3017 4.9061 24.0903 5.07946C24.1344 5.08812 24.1784 5.11413 24.2137 5.1488Z" fill="#53AFCB"/>
</svg>
