<svg width="132" height="25" viewBox="0 0 132 25" fill="none" xmlns="http://www.w3.org/2000/svg">
<g clip-path="url(#clip0)">
<path d="M34.4153 15.2679C34.9798 15.856 35.6633 16.3193 36.4211 16.6276C37.3435 16.9681 38.3224 17.1338 39.3066 17.116C39.8697 17.116 40.3962 17.0467 40.8284 17.0105C41.2602 16.9551 41.6847 16.8541 42.0946 16.709C42.4812 16.6035 42.7977 16.4286 43.1143 16.3261C43.3647 16.1846 43.6228 16.0568 43.8874 15.9432L43.4947 15.1261C43.2847 15.2317 43.0717 15.3342 42.8251 15.4276C42.5958 15.5321 42.3611 15.6247 42.122 15.705C41.8375 15.8 41.5419 15.8587 41.2424 15.8799C40.8582 15.9422 40.4686 15.9655 40.0797 15.9492C39.3782 15.9752 38.6833 15.806 38.0739 15.4608C37.5606 15.1441 37.1275 14.715 36.8077 14.2066C36.5059 13.6152 36.3004 12.9802 36.1989 12.3252C36.0838 11.5404 36.0248 10.7485 36.0224 9.95545C36.0224 9.29215 36.0924 8.59569 36.1289 7.89923C36.1822 7.26781 36.3525 6.65151 36.6312 6.0812C36.8819 5.54971 37.2552 5.08396 37.7208 4.72144C38.3104 4.35147 38.9952 4.1578 39.6931 4.16367C40.3972 4.15453 41.0863 4.36553 41.6624 4.76666C42.2255 5.14957 42.5421 5.77668 42.6821 6.61485H43.5617V3.94056C43.2817 3.83504 42.9986 3.73253 42.6821 3.63906C42.3509 3.53309 42.0089 3.46333 41.6624 3.43103C41.2759 3.36168 40.9593 3.36168 40.5728 3.3255C40.2684 3.3255 39.9031 3.25616 39.6597 3.25616C38.6179 3.23944 37.5814 3.40478 36.5977 3.74459C35.7961 4.03812 35.079 4.52115 34.5088 5.15168C33.9385 5.78222 33.5324 6.54117 33.3257 7.36256C33.0453 8.32522 32.9149 9.32465 32.9391 10.3263C32.9168 11.2823 33.0473 12.2357 33.3257 13.1513C33.5087 13.9345 33.8828 14.6612 34.4153 15.2679Z" fill="#53AFCB"/>
<path d="M87.7991 16.6638C88.4297 16.6001 89.0406 16.4104 89.5949 16.106C90.1522 15.7977 90.5958 15.3214 90.8611 14.7463C91.2217 13.9845 91.3908 13.1477 91.3542 12.3071C91.3768 11.6664 91.2735 11.0274 91.0498 10.4258C90.8354 9.91145 90.4827 9.46514 90.0302 9.13538C89.4613 8.78247 88.8269 8.54569 88.1644 8.43892C87.2483 8.27069 86.3166 8.20094 85.3855 8.23088H84.2228V5.01993C84.2076 4.90091 84.2186 4.78006 84.2548 4.6656C84.291 4.55114 84.3517 4.44576 84.4328 4.35663C84.7128 4.25046 85.0149 4.21422 85.3124 4.2511H86.9652C87.3885 4.23527 87.8124 4.25849 88.2313 4.32045C88.5112 4.33685 88.7801 4.43435 89.0045 4.60084C89.2256 4.77445 89.3958 5.00346 89.4975 5.26414C89.6584 5.63573 89.7877 6.01997 89.8841 6.41285H90.5659V3.41595H80.5216V3.83504C80.5916 3.83504 80.6281 3.90438 80.8016 3.90438C80.9782 3.97373 81.0847 4.00991 81.106 4.07925C81.1786 4.17121 81.238 4.27267 81.2825 4.38075C81.2825 4.55562 81.3525 4.68225 81.3525 4.93852V15.2558C81.3685 15.4445 81.3447 15.6345 81.2825 15.8136C81.2825 15.9884 81.2125 16.0909 81.106 16.1151C81.0309 16.2098 80.922 16.2724 80.8016 16.2899C80.7153 16.335 80.6192 16.3587 80.5216 16.3593V16.7784H85.5894C86.3275 16.7781 87.0651 16.7399 87.7991 16.6638ZM84.4784 15.6869C84.4226 15.6398 84.3778 15.581 84.3473 15.5149C84.3168 15.4487 84.3013 15.3768 84.3019 15.304C84.3019 15.1292 84.2319 14.9211 84.2319 14.6407V9.02985H85.3946C86.4143 9.02985 87.1904 9.30723 87.647 9.83184C88.1035 10.3564 88.3166 11.2248 88.3166 12.4127C88.3352 13.0464 88.2645 13.6796 88.1066 14.294C87.9923 14.6963 87.7837 15.0661 87.4978 15.3734C87.2476 15.5662 86.976 15.7301 86.6882 15.8618C86.3641 15.9313 86.0336 15.9667 85.702 15.9673C85.3976 15.898 85.0933 15.898 84.9289 15.8618C84.762 15.8615 84.6012 15.7991 84.4784 15.6869Z" fill="#53AFCB"/>
<path d="M73.4418 16.3502C73.3718 16.3502 73.3353 16.2809 73.1618 16.2809C72.9853 16.2115 72.8787 16.1754 72.8574 16.106C72.8361 16.0367 72.7509 15.9311 72.6809 15.8045C72.6809 15.6296 72.6109 15.503 72.6109 15.2467V11.5383H73.9836C74.6559 11.535 75.3268 11.4765 75.9894 11.3634C76.5858 11.2696 77.1589 11.065 77.6787 10.7604C78.1867 10.4538 78.5913 10.0047 78.8414 9.47003C79.1535 8.76837 79.2982 8.00495 79.2644 7.23894C79.2756 6.53483 79.1441 5.83566 78.8779 5.18272C78.6071 4.71459 78.2324 4.31355 77.7822 4.00989C77.2993 3.72907 76.7578 3.56196 76.1994 3.52147C75.5801 3.44965 74.9571 3.41441 74.3336 3.41594H68.9736V3.83502C69.0436 3.83502 69.0802 3.90437 69.2567 3.90437C69.4332 3.97371 69.5367 4.00989 69.5611 4.07924C69.6338 4.17113 69.6932 4.2726 69.7376 4.38073C69.7376 4.5556 69.8076 4.68223 69.8076 4.93851V15.2226C69.8239 15.4113 69.8001 15.6014 69.7376 15.7804C69.7376 15.9553 69.6676 16.0578 69.5611 16.0819C69.486 16.1766 69.377 16.2392 69.2567 16.2568C69.1694 16.3022 69.0723 16.326 68.9736 16.3261V16.709H73.4083L73.4418 16.3261V16.3502ZM72.7022 4.9174C72.694 4.81219 72.7184 4.70701 72.7722 4.6159C72.7751 4.57596 72.786 4.53699 72.8043 4.50127C72.8226 4.46555 72.8479 4.4338 72.8787 4.40787C72.9626 4.33512 73.0717 4.29731 73.1831 4.30234C73.3596 4.30234 73.4875 4.233 73.7918 4.233C74.1222 4.25082 74.4514 4.28605 74.778 4.33853C75.0782 4.44599 75.3535 4.61208 75.5876 4.82695C75.8188 5.09971 76.0084 5.40442 76.1507 5.73145C76.2702 6.18622 76.3295 6.65445 76.3273 7.12437C76.3273 8.27308 76.1507 9.11124 75.8342 9.70519C75.5176 10.2991 74.9211 10.6097 74.0749 10.6097H72.7022V4.9174Z" fill="#53AFCB"/>
<path d="M67.2145 13.7001H66.3348C66.2585 14.1237 66.1569 14.5426 66.0304 14.9543C65.9714 15.2265 65.8225 15.4716 65.6074 15.6508C65.5044 15.7467 65.3827 15.8208 65.2497 15.8685C65.1168 15.9162 64.9754 15.9365 64.8343 15.9281C64.3799 15.9941 63.9203 16.0173 63.4615 15.9975C63.0382 16.018 62.6138 15.9947 62.1954 15.9281C61.9504 15.9004 61.7124 15.83 61.4923 15.7201C61.4148 15.678 61.3488 15.6178 61.3 15.5448C61.2512 15.4718 61.2211 15.3881 61.2122 15.301C61.1473 15.0512 61.1237 14.7926 61.1422 14.5352V10.2841H63.4768C63.6868 10.2841 63.8998 10.3534 64.1464 10.3534C64.3717 10.3741 64.5954 10.4093 64.816 10.459C65.011 10.507 65.1999 10.5768 65.3791 10.667V8.92433C65.2096 9.03484 65.0171 9.10596 64.816 9.13236C64.374 9.21363 63.928 9.272 63.4798 9.30723H61.1209V4.87521C61.1216 4.66967 61.1576 4.46575 61.2275 4.27221C61.334 4.16668 61.5105 4.16668 61.7906 4.16668H63.2698C63.6931 4.15089 64.117 4.1741 64.536 4.23603C64.8142 4.25797 65.0812 4.35379 65.3091 4.51341C65.5302 4.68702 65.7004 4.91602 65.8022 5.1767C65.9629 5.54938 66.0922 5.93461 66.1887 6.32843H66.8918V3.41595H57.502V3.83504C57.572 3.83504 57.6085 3.90438 57.782 3.90438C57.9585 3.97373 58.062 4.00991 58.0863 4.07925C58.159 4.17114 58.2185 4.27262 58.2629 4.38075C58.2629 4.55562 58.3329 4.68225 58.3329 4.93852V15.2226C58.349 15.4114 58.3252 15.6013 58.2629 15.7804C58.2629 15.9553 58.1929 16.0578 58.0863 16.0819C58.0112 16.1766 57.9023 16.2392 57.782 16.2568C57.6956 16.3018 57.5996 16.3256 57.502 16.3261V16.709H67.2145V13.7001Z" fill="#53AFCB"/>
<path d="M52.3642 16.6638C52.9947 16.6001 53.6056 16.4104 54.1599 16.106C54.7199 15.7898 55.1731 15.3167 55.4627 14.7463C55.8234 13.9846 55.9926 13.1477 55.9557 12.3071C55.9785 11.6664 55.8751 11.0274 55.6514 10.4258C55.4369 9.91144 55.0843 9.46514 54.6317 9.13538C54.0628 8.78247 53.4285 8.54569 52.7659 8.43891C51.8499 8.27065 50.9182 8.2009 49.987 8.23088H48.8243V5.01993C48.8094 4.90092 48.8204 4.78012 48.8566 4.66569C48.8929 4.55126 48.9535 4.44587 49.0343 4.35663C49.3143 4.25046 49.6164 4.21422 49.914 4.2511H51.5667C51.99 4.23529 52.4139 4.25851 52.8329 4.32045C53.1114 4.34328 53.3785 4.44015 53.606 4.60084C53.8271 4.77445 53.9973 5.00346 54.0991 5.26414C54.2601 5.63567 54.3894 6.01992 54.4856 6.41285H55.1887V3.41595H45.114V3.83504C45.184 3.83504 45.2205 3.90438 45.3971 3.90438C45.5736 3.97372 45.6771 4.00991 45.7015 4.07925C45.774 4.17121 45.8335 4.27267 45.878 4.38075C45.878 4.55562 45.948 4.68225 45.948 4.93852V15.2226C45.9615 15.4113 45.9377 15.6008 45.878 15.7804C45.878 15.9553 45.808 16.0578 45.7015 16.0819C45.6263 16.1766 45.5174 16.2392 45.3971 16.2568C45.3098 16.3023 45.2126 16.3261 45.114 16.3261V16.8145H50.1818C50.9975 16.7693 51.658 16.7693 52.3642 16.6638ZM49.0556 15.6869C48.9997 15.6398 48.955 15.581 48.9245 15.5149C48.894 15.4487 48.8785 15.3768 48.8791 15.304C48.8791 15.1292 48.8091 14.9211 48.8091 14.6407V9.02985H49.9718C50.9914 9.02985 51.7676 9.30723 52.2241 9.83184C52.6807 10.3564 52.8938 11.2248 52.8938 12.4127C52.9121 13.0464 52.8414 13.6796 52.6837 14.294C52.5695 14.6963 52.3609 15.0661 52.075 15.3734C51.8248 15.5662 51.5532 15.7301 51.2654 15.8618C50.9413 15.9313 50.6108 15.9667 50.2792 15.9673C49.9748 15.898 49.7161 15.898 49.5061 15.8618C49.4229 15.8647 49.3401 15.8507 49.2626 15.8206C49.1851 15.7905 49.1147 15.745 49.0556 15.6869Z" fill="#53AFCB"/>
<path d="M131.897 20.5652H32.8691V21.8557H131.897V20.5652Z" fill="#53AFCB"/>
<path d="M123.977 11.7494C124.26 12.1323 124.47 12.4459 124.75 12.7594C124.96 13.0609 125.243 13.4227 125.453 13.7363C125.664 14.0778 125.899 14.4043 126.156 14.7131C126.415 15.0565 126.65 15.4172 126.859 15.7925C127.069 16.094 127.246 16.489 127.422 16.8025L131.988 16.8719C131.495 16.3834 131.075 15.895 130.582 15.4066C130.159 14.9181 129.772 14.5021 129.489 14.2217C129.066 13.7333 128.679 13.3172 128.329 12.9313C127.979 12.5454 127.626 12.1293 127.31 11.7464C126.983 11.3685 126.679 10.9729 126.397 10.5615C126.15 10.1786 125.788 9.69017 125.517 9.27108L125.727 8.99371C126.031 8.57462 126.43 8.12238 126.89 7.60078C127.309 7.04658 127.768 6.52266 128.262 6.03299C128.707 5.52185 129.18 5.03473 129.678 4.57374C130.077 4.20991 130.5 3.87251 130.944 3.56372H127.775C127.633 3.8996 127.468 4.22591 127.282 4.54057C127.06 4.97426 126.801 5.38876 126.509 5.77973C126.229 6.19882 125.9 6.68423 125.629 7.17266C125.359 7.66108 125.021 8.07715 124.716 8.53241C124.412 8.98767 124.108 9.40374 123.837 9.7173C123.557 10.1002 123.344 10.3806 123.167 10.6218C123.414 10.9806 123.694 11.3665 123.977 11.7494Z" fill="#53AFCB"/>
<path d="M123.59 16.3503C123.52 16.3503 123.484 16.2809 123.307 16.2809C123.131 16.2116 123.027 16.1754 123.003 16.1061C122.93 16.0142 122.871 15.9127 122.826 15.8046C122.826 15.6297 122.756 15.5031 122.756 15.2468V4.99586C122.74 4.80713 122.764 4.61711 122.826 4.43809C122.826 4.26322 122.896 4.16071 123.003 4.13659C123.095 4.06455 123.198 4.00569 123.307 3.96172C123.394 3.91623 123.491 3.89243 123.59 3.89237V3.44012H119.155V3.85921C119.225 3.85921 119.262 3.92855 119.438 3.92855C119.615 3.9979 119.718 4.03408 119.743 4.10342C119.816 4.19525 119.875 4.29674 119.919 4.40492C119.919 4.57979 119.989 4.70642 119.989 4.96269V15.2468C120.006 15.4355 119.982 15.6256 119.919 15.8046C119.919 15.9794 119.849 16.082 119.743 16.1061C119.668 16.2011 119.559 16.2637 119.438 16.2809C119.351 16.3264 119.254 16.3502 119.155 16.3503V16.7332H123.59V16.3503Z" fill="#53AFCB"/>
<path d="M94.2183 15.1653C94.3948 14.3995 94.7114 13.3171 95.1314 11.9574H99.4596L100.068 13.7C100.322 14.3335 100.526 14.9857 100.677 15.6507C100.824 16.0314 100.918 16.43 100.957 16.8356H104.406C104.229 16.5582 104.101 16.1723 103.843 15.7563C103.547 15.1452 103.289 14.5169 103.069 13.8749L99.9405 5.08925C99.8112 4.77458 99.7163 4.44709 99.6574 4.11239C99.5874 3.83502 99.5874 3.62397 99.5509 3.4491H95.6823V3.86818C95.7523 3.86818 95.7889 3.93752 95.9624 3.93752C96.1389 4.00687 96.2424 4.04305 96.2667 4.11239C96.3395 4.20424 96.3989 4.30573 96.4433 4.41389V4.69127C96.4462 4.99072 96.3861 5.28748 96.2667 5.5626L94.0844 10.8599C93.6978 11.8368 93.3113 12.7081 93.0647 13.3352C92.8182 13.9623 92.5016 14.5895 92.3616 15.0085C92.1516 15.4276 91.9751 15.8105 91.7985 16.0879C91.6575 16.3132 91.5285 16.5457 91.412 16.7844H93.8744C93.9564 16.2384 94.0712 15.6977 94.2183 15.1653ZM97.3168 5.61386L99.0882 11.0167H95.3658L97.3168 5.61386Z" fill="#53AFCB"/>
<path d="M109.547 16.3502H109.437C109.367 16.3502 109.33 16.2809 109.154 16.2809C108.977 16.2115 108.874 16.1754 108.85 16.106C108.777 16.0141 108.718 15.9126 108.673 15.8045C108.673 15.6297 108.603 15.503 108.603 15.2468V10.1213H113.847V15.2106C113.864 15.3993 113.84 15.5893 113.777 15.7683C113.777 15.9432 113.707 16.0457 113.601 16.0698C113.526 16.1646 113.417 16.2272 113.296 16.2447C113.21 16.2897 113.114 16.3135 113.016 16.3141V16.7331H117.451V16.3141C117.381 16.3141 117.345 16.2447 117.171 16.2447C116.995 16.1754 116.888 16.1392 116.867 16.0698C116.794 15.9781 116.734 15.8766 116.69 15.7683C116.69 15.5935 116.62 15.4668 116.62 15.2106V4.87521C116.604 4.68648 116.628 4.49646 116.69 4.31743C116.69 4.14257 116.76 4.04006 116.867 4.01594C116.96 3.94396 117.062 3.88511 117.171 3.84107C117.257 3.79605 117.354 3.77226 117.451 3.77172V3.41595H113.089V3.83504C113.159 3.83504 113.196 3.90438 113.37 3.90438C113.546 3.97373 113.653 4.00991 113.674 4.07925C113.747 4.17114 113.806 4.27262 113.85 4.38075C113.85 4.55562 113.92 4.68225 113.92 4.93852V9.23789H108.74V4.91742C108.724 4.72869 108.748 4.53875 108.81 4.35964C108.81 4.18477 108.88 4.08227 108.987 4.05815C109.079 3.98601 109.182 3.92714 109.291 3.88328C109.376 3.83493 109.473 3.81092 109.571 3.81393V3.41595H105.148V3.83504C105.218 3.83504 105.255 3.90438 105.428 3.90438C105.605 3.97373 105.708 4.00991 105.733 4.07925C105.805 4.17121 105.865 4.27267 105.909 4.38075C105.909 4.55562 105.979 4.68225 105.979 4.93852V15.2558C105.993 15.4445 105.969 15.634 105.909 15.8136C105.909 15.9884 105.839 16.0909 105.733 16.1151C105.658 16.2098 105.549 16.2724 105.428 16.2899C105.342 16.335 105.246 16.3587 105.148 16.3593V16.7784H109.583L109.547 16.3261V16.3502Z" fill="#53AFCB"/>
<path d="M23.8597 4.81188C23.5766 4.42898 23.2966 4.04607 23.05 3.66016L7.91667 12.271L0.611745 8.12233C0.444087 8.56999 0.341603 9.039 0.307373 9.51526L7.98668 13.9202L23.8597 4.81188Z" fill="#53AFCB"/>
<path d="M7.91677 15.512L0.0700637 11.0499C0.011998 11.3243 -0.0115162 11.6048 5.82961e-05 11.885C5.82961e-05 15.2966 1.36822 18.5685 3.80358 20.9808C6.23893 23.3932 9.54198 24.7484 12.9861 24.7484C16.4302 24.7484 19.7332 23.3932 22.1686 20.9808C24.6039 18.5685 25.9721 15.2966 25.9721 11.885C25.9867 9.84956 25.5042 7.8408 24.5659 6.02991L7.91677 15.512Z" fill="#53AFCB"/>
<path d="M21.9939 2.5808C21.6241 2.23501 21.236 1.90894 20.8312 1.60394L7.91672 9.02985L1.68927 5.50835C1.47926 5.89125 1.26619 6.31033 1.01965 6.76258L7.84671 10.667L21.9939 2.5808Z" fill="#53AFCB"/>
<path d="M19.5651 0.768858C19.0763 0.479012 18.5678 0.223128 18.0432 0.00305176L7.91675 5.77976L3.37857 3.24416C3.0742 3.54566 2.76983 3.94062 2.46545 4.32352L7.88327 7.39278L19.5651 0.768858Z" fill="#53AFCB"/>
</g>
<defs>
<clipPath id="clip0">
<rect width="132" height="24.75" fill="white"/>
</clipPath>
</defs>
</svg>
